<svg xmlns="http://www.w3.org/2000/svg" width="18.829" height="29.896" viewBox="0 0 18.829 29.896">
  <g id="Logo" transform="translate(-403.873 -988.455)">
    <path id="path878" d="M-55.366,165.175l4.707-2.718v16.307l4.707-2.718,4.707,2.718V162.457l4.707,2.718v21.742l-4.707,2.718-4.707,2.718-4.707-2.718-4.707-2.718Z" transform="translate(459.239 825.998)" fill="#fff"/>
    <path id="path886" d="M-50.658,166.457l-4.707,2.718,9.415,5.436,9.415-5.436-4.707-2.718-4.707,2.718Z" transform="translate(459.239 843.74)" fill="#fff"/>
    <path id="path890" d="M-53.634,176.046v5.436l9.415,5.436V165.175l-4.707-2.718v16.307Z" transform="translate(466.922 825.998)" fill="#fff"/>
    <path id="path884" d="M-49.792,165.957l-4.707,2.718,4.707,2.718,4.707-2.718Z" transform="translate(463.08 841.523)" fill="#242424"/>
  </g>
</svg>
